<svg width="196" height="22" viewBox="0 0 196 22" fill="none" xmlns="http://www.w3.org/2000/svg">
<path d="M0.167969 21V2.90625H3.96484C5.78516 2.90625 7.22266 3.08594 8.27734 3.44531C9.41016 3.79688 10.4375 4.39453 11.3594 5.23828C13.2266 6.94141 14.1602 9.17969 14.1602 11.9531C14.1602 14.7344 13.1875 16.9844 11.2422 18.7031C10.2656 19.5625 9.24219 20.1602 8.17188 20.4961C7.17188 20.832 5.75391 21 3.91797 21H0.167969ZM2.89844 18.4336H4.12891C5.35547 18.4336 6.375 18.3047 7.1875 18.0469C8 17.7734 8.73438 17.3398 9.39062 16.7461C10.7344 15.5195 11.4062 13.9219 11.4062 11.9531C11.4062 9.96875 10.7422 8.35938 9.41406 7.125C8.21875 6.02344 6.45703 5.47266 4.12891 5.47266H2.89844V18.4336ZM19.7383 9.58594V16.1367C19.7383 18.0273 20.4844 18.9727 21.9766 18.9727C23.4688 18.9727 24.2148 18.0273 24.2148 16.1367V9.58594H26.8516V16.1953C26.8516 17.1094 26.7383 17.8984 26.5117 18.5625C26.293 19.1562 25.9141 19.6914 25.375 20.168C24.4844 20.9414 23.3516 21.3281 21.9766 21.3281C20.6094 21.3281 19.4805 20.9414 18.5898 20.168C18.043 19.6914 17.6562 19.1562 17.4297 18.5625C17.2109 18.0312 17.1016 17.2422 17.1016 16.1953V9.58594H19.7383ZM32.8164 1.20703V10.9102C33.8711 9.81641 35.0664 9.26953 36.4023 9.26953C37.9414 9.26953 39.2227 9.84375 40.2461 10.9922C41.2695 12.1328 41.7812 13.5547 41.7812 15.2578C41.7812 17.0156 41.2656 18.4688 40.2344 19.6172C39.2109 20.7578 37.918 21.3281 36.3555 21.3281C35.0352 21.3281 33.8555 20.8203 32.8164 19.8047V21H30.1797V1.20703H32.8164ZM39.0859 15.375C39.0859 14.2812 38.7891 13.3906 38.1953 12.7031C37.5938 12 36.8398 11.6484 35.9336 11.6484C34.9648 11.6484 34.1758 11.9883 33.5664 12.668C32.9648 13.3398 32.6641 14.2148 32.6641 15.293C32.6641 16.4023 32.9609 17.2891 33.5547 17.9531C34.1484 18.6328 34.9297 18.9727 35.8984 18.9727C36.8125 18.9727 37.5703 18.6328 38.1719 17.9531C38.7812 17.2656 39.0859 16.4062 39.0859 15.375ZM47.207 9.58594V21H44.5703V9.58594H47.207ZM44.1719 4.83984C44.1719 4.37891 44.3398 3.98047 44.6758 3.64453C45.0117 3.30859 45.4141 3.14062 45.8828 3.14062C46.3594 3.14062 46.7656 3.30859 47.1016 3.64453C47.4375 3.97266 47.6055 4.375 47.6055 4.85156C47.6055 5.32813 47.4375 5.73437 47.1016 6.07031C46.7734 6.40625 46.3711 6.57422 45.8945 6.57422C45.418 6.57422 45.0117 6.40625 44.6758 6.07031C44.3398 5.73437 44.1719 5.32422 44.1719 4.83984Z" fill="#BD8800"/>
<path d="M61.2812 5.60156L59.0664 6.91406C58.6523 6.19531 58.2578 5.72656 57.8828 5.50781C57.4922 5.25781 56.9883 5.13281 56.3711 5.13281C55.6133 5.13281 54.9844 5.34766 54.4844 5.77734C53.9844 6.19922 53.7344 6.73047 53.7344 7.37109C53.7344 8.25391 54.3906 8.96484 55.7031 9.50391L57.5078 10.2422C58.9766 10.8359 60.0508 11.5625 60.7305 12.4219C61.4102 13.2734 61.75 14.3203 61.75 15.5625C61.75 17.2266 61.1953 18.6016 60.0859 19.6875C58.9688 20.7812 57.582 21.3281 55.9258 21.3281C54.3555 21.3281 53.0586 20.8633 52.0352 19.9336C51.0273 19.0039 50.3984 17.6953 50.1484 16.0078L52.9141 15.3984C53.0391 16.4609 53.2578 17.1953 53.5703 17.6016C54.1328 18.3828 54.9531 18.7734 56.0312 18.7734C56.8828 18.7734 57.5898 18.4883 58.1523 17.918C58.7148 17.3477 58.9961 16.625 58.9961 15.75C58.9961 15.3984 58.9453 15.0781 58.8438 14.7891C58.75 14.4922 58.5977 14.2227 58.3867 13.9805C58.1836 13.7305 57.918 13.5 57.5898 13.2891C57.2617 13.0703 56.8711 12.8633 56.418 12.668L54.6719 11.9414C52.1953 10.8945 50.957 9.36328 50.957 7.34766C50.957 5.98828 51.4766 4.85156 52.5156 3.9375C53.5547 3.01562 54.8477 2.55469 56.3945 2.55469C58.4805 2.55469 60.1094 3.57031 61.2812 5.60156ZM64 15.2109C64 13.5625 64.5898 12.1602 65.7695 11.0039C66.9492 9.84766 68.3867 9.26953 70.082 9.26953C71.7852 9.26953 73.2305 9.85156 74.418 11.0156C75.5898 12.1797 76.1758 13.6094 76.1758 15.3047C76.1758 17.0156 75.5859 18.4492 74.4062 19.6055C73.2188 20.7539 71.7617 21.3281 70.0352 21.3281C68.3242 21.3281 66.8906 20.7422 65.7344 19.5703C64.5781 18.4141 64 16.9609 64 15.2109ZM66.6953 15.2578C66.6953 16.3984 67 17.3008 67.6094 17.9648C68.2344 18.6367 69.0586 18.9727 70.082 18.9727C71.1133 18.9727 71.9375 18.6406 72.5547 17.9766C73.1719 17.3125 73.4805 16.4258 73.4805 15.3164C73.4805 14.207 73.1719 13.3203 72.5547 12.6562C71.9297 11.9844 71.1055 11.6484 70.082 11.6484C69.0742 11.6484 68.2578 11.9844 67.6328 12.6562C67.0078 13.3281 66.6953 14.1953 66.6953 15.2578ZM81.707 12.0469V21H79.0586V12.0469H78.1211V9.58594H79.0586V5.17969C79.0586 3.74219 79.3086 2.72656 79.8086 2.13281C80.4961 1.30469 81.4961 0.890625 82.8086 0.890625C83.2773 0.890625 83.8672 1.02734 84.5781 1.30078V3.99609L84.3086 3.85547C83.7383 3.56641 83.2695 3.42188 82.9023 3.42188C82.4336 3.42188 82.1172 3.58984 81.9531 3.92578C81.7891 4.25391 81.707 4.88672 81.707 5.82422V9.58594H84.5781V12.0469H81.707ZM89.6875 12.0469V21H87.0508V12.0469H85.9258V9.58594H87.0508V5.40234H89.6875V9.58594H91.7383V12.0469H89.6875ZM111.672 5.60156L109.457 6.91406C109.043 6.19531 108.648 5.72656 108.273 5.50781C107.883 5.25781 107.379 5.13281 106.762 5.13281C106.004 5.13281 105.375 5.34766 104.875 5.77734C104.375 6.19922 104.125 6.73047 104.125 7.37109C104.125 8.25391 104.781 8.96484 106.094 9.50391L107.898 10.2422C109.367 10.8359 110.441 11.5625 111.121 12.4219C111.801 13.2734 112.141 14.3203 112.141 15.5625C112.141 17.2266 111.586 18.6016 110.477 19.6875C109.359 20.7812 107.973 21.3281 106.316 21.3281C104.746 21.3281 103.449 20.8633 102.426 19.9336C101.418 19.0039 100.789 17.6953 100.539 16.0078L103.305 15.3984C103.43 16.4609 103.648 17.1953 103.961 17.6016C104.523 18.3828 105.344 18.7734 106.422 18.7734C107.273 18.7734 107.98 18.4883 108.543 17.918C109.105 17.3477 109.387 16.625 109.387 15.75C109.387 15.3984 109.336 15.0781 109.234 14.7891C109.141 14.4922 108.988 14.2227 108.777 13.9805C108.574 13.7305 108.309 13.5 107.98 13.2891C107.652 13.0703 107.262 12.8633 106.809 12.668L105.062 11.9414C102.586 10.8945 101.348 9.36328 101.348 7.34766C101.348 5.98828 101.867 4.85156 102.906 3.9375C103.945 3.01562 105.238 2.55469 106.785 2.55469C108.871 2.55469 110.5 3.57031 111.672 5.60156ZM114.391 15.2109C114.391 13.5625 114.98 12.1602 116.16 11.0039C117.34 9.84766 118.777 9.26953 120.473 9.26953C122.176 9.26953 123.621 9.85156 124.809 11.0156C125.98 12.1797 126.566 13.6094 126.566 15.3047C126.566 17.0156 125.977 18.4492 124.797 19.6055C123.609 20.7539 122.152 21.3281 120.426 21.3281C118.715 21.3281 117.281 20.7422 116.125 19.5703C114.969 18.4141 114.391 16.9609 114.391 15.2109ZM117.086 15.2578C117.086 16.3984 117.391 17.3008 118 17.9648C118.625 18.6367 119.449 18.9727 120.473 18.9727C121.504 18.9727 122.328 18.6406 122.945 17.9766C123.562 17.3125 123.871 16.4258 123.871 15.3164C123.871 14.207 123.562 13.3203 122.945 12.6562C122.32 11.9844 121.496 11.6484 120.473 11.6484C119.465 11.6484 118.648 11.9844 118.023 12.6562C117.398 13.3281 117.086 14.1953 117.086 15.2578ZM132.004 1.20703V21H129.367V1.20703H132.004ZM137.98 9.58594V16.1367C137.98 18.0273 138.727 18.9727 140.219 18.9727C141.711 18.9727 142.457 18.0273 142.457 16.1367V9.58594H145.094V16.1953C145.094 17.1094 144.98 17.8984 144.754 18.5625C144.535 19.1562 144.156 19.6914 143.617 20.168C142.727 20.9414 141.594 21.3281 140.219 21.3281C138.852 21.3281 137.723 20.9414 136.832 20.168C136.285 19.6914 135.898 19.1562 135.672 18.5625C135.453 18.0312 135.344 17.2422 135.344 16.1953V9.58594H137.98ZM151.141 12.0469V21H148.504V12.0469H147.379V9.58594H148.504V5.40234H151.141V9.58594H153.191V12.0469H151.141ZM157.621 9.58594V21H154.984V9.58594H157.621ZM154.586 4.83984C154.586 4.37891 154.754 3.98047 155.09 3.64453C155.426 3.30859 155.828 3.14062 156.297 3.14062C156.773 3.14062 157.18 3.30859 157.516 3.64453C157.852 3.97266 158.02 4.375 158.02 4.85156C158.02 5.32813 157.852 5.73437 157.516 6.07031C157.188 6.40625 156.785 6.57422 156.309 6.57422C155.832 6.57422 155.426 6.40625 155.09 6.07031C154.754 5.73437 154.586 5.32422 154.586 4.83984ZM160.422 15.2109C160.422 13.5625 161.012 12.1602 162.191 11.0039C163.371 9.84766 164.809 9.26953 166.504 9.26953C168.207 9.26953 169.652 9.85156 170.84 11.0156C172.012 12.1797 172.598 13.6094 172.598 15.3047C172.598 17.0156 172.008 18.4492 170.828 19.6055C169.641 20.7539 168.184 21.3281 166.457 21.3281C164.746 21.3281 163.312 20.7422 162.156 19.5703C161 18.4141 160.422 16.9609 160.422 15.2109ZM163.117 15.2578C163.117 16.3984 163.422 17.3008 164.031 17.9648C164.656 18.6367 165.48 18.9727 166.504 18.9727C167.535 18.9727 168.359 18.6406 168.977 17.9766C169.594 17.3125 169.902 16.4258 169.902 15.3164C169.902 14.207 169.594 13.3203 168.977 12.6562C168.352 11.9844 167.527 11.6484 166.504 11.6484C165.496 11.6484 164.68 11.9844 164.055 12.6562C163.43 13.3281 163.117 14.1953 163.117 15.2578ZM175.398 9.58594H178.047V10.6406C178.969 9.72656 180.008 9.26953 181.164 9.26953C182.492 9.26953 183.527 9.6875 184.27 10.5234C184.91 11.2344 185.23 12.3945 185.23 14.0039V21H182.582V14.625C182.582 13.5 182.426 12.7227 182.113 12.293C181.809 11.8555 181.254 11.6367 180.449 11.6367C179.574 11.6367 178.953 11.9258 178.586 12.5039C178.227 13.0742 178.047 14.0703 178.047 15.4922V21H175.398V9.58594ZM195.203 11.5312L193.023 12.6914C192.68 11.9883 192.254 11.6367 191.746 11.6367C191.504 11.6367 191.297 11.7188 191.125 11.8828C190.953 12.0391 190.867 12.2422 190.867 12.4922C190.867 12.9297 191.375 13.3633 192.391 13.793C193.789 14.3945 194.73 14.9492 195.215 15.457C195.699 15.9648 195.941 16.6484 195.941 17.5078C195.941 18.6094 195.535 19.5312 194.723 20.2734C193.934 20.9766 192.98 21.3281 191.863 21.3281C189.949 21.3281 188.594 20.3945 187.797 18.5273L190.047 17.4844C190.359 18.0312 190.598 18.3789 190.762 18.5273C191.082 18.8242 191.465 18.9727 191.91 18.9727C192.801 18.9727 193.246 18.5664 193.246 17.7539C193.246 17.2852 192.902 16.8477 192.215 16.4414C191.949 16.3086 191.684 16.1797 191.418 16.0547C191.152 15.9297 190.883 15.8008 190.609 15.668C189.844 15.293 189.305 14.918 188.992 14.543C188.594 14.0664 188.395 13.4531 188.395 12.7031C188.395 11.7109 188.734 10.8906 189.414 10.2422C190.109 9.59375 190.953 9.26953 191.945 9.26953C193.406 9.26953 194.492 10.0234 195.203 11.5312Z" fill="#E5E5E5"/>
</svg>
