<svg width="261" height="19" viewBox="0 0 261 19" fill="none" xmlns="http://www.w3.org/2000/svg">
<path d="M0.992 0.912H6.968C9.736 0.912 11.88 1.656 13.4 3.144C14.92 4.632 15.68 6.728 15.68 9.432C15.68 12.152 14.92 14.264 13.4 15.768C11.88 17.256 9.736 18 6.968 18H0.992V0.912ZM6.824 15.936C11.032 15.936 13.136 13.768 13.136 9.432C13.136 5.128 11.032 2.976 6.824 2.976H3.464V15.936H6.824ZM25.9023 18.192C23.6303 18.192 21.9023 17.6 20.7183 16.416C19.5503 15.232 18.9663 13.496 18.9663 11.208V0.912H21.3903V11.376C21.3903 12.96 21.7663 14.16 22.5183 14.976C23.2863 15.776 24.4143 16.176 25.9023 16.176C27.3743 16.176 28.4863 15.768 29.2383 14.952C30.0063 14.136 30.3903 12.944 30.3903 11.376V0.912H32.8383V11.208C32.8383 13.496 32.2463 15.232 31.0623 16.416C29.8943 17.6 28.1743 18.192 25.9023 18.192ZM46.7668 9.192C47.7588 9.464 48.5268 9.96 49.0708 10.68C49.6148 11.4 49.8868 12.288 49.8868 13.344C49.8868 14.816 49.3748 15.96 48.3508 16.776C47.3428 17.592 45.9268 18 44.1028 18H36.7108V0.912H43.8628C45.6228 0.912 46.9908 1.304 47.9668 2.088C48.9588 2.872 49.4548 3.968 49.4548 5.376C49.4548 6.288 49.2148 7.08 48.7348 7.752C48.2708 8.408 47.6148 8.888 46.7668 9.192ZM39.1588 8.328H43.4788C45.8628 8.328 47.0547 7.408 47.0547 5.568C47.0547 3.792 45.8628 2.904 43.4788 2.904H39.1588V8.328ZM43.8628 16.008C45.1108 16.008 46.0228 15.784 46.5988 15.336C47.1748 14.872 47.4628 14.16 47.4628 13.2C47.4628 12.224 47.1668 11.504 46.5748 11.04C45.9988 10.56 45.0948 10.32 43.8628 10.32H39.1588V16.008H43.8628ZM53.1404 0.912H55.6124V18H53.1404V0.912ZM65.1778 18.192C63.8498 18.192 62.6338 18.016 61.5298 17.664C60.4418 17.312 59.4978 16.784 58.6978 16.08L59.5858 14.256C60.4178 14.928 61.2818 15.416 62.1778 15.72C63.0738 16.024 64.0818 16.176 65.2018 16.176C66.4818 16.176 67.4738 15.936 68.1778 15.456C68.8818 14.976 69.2338 14.296 69.2338 13.416C69.2338 12.68 68.9058 12.128 68.2498 11.76C67.5938 11.376 66.5538 11.024 65.1298 10.704C63.7698 10.416 62.6578 10.088 61.7938 9.72C60.9298 9.336 60.2498 8.832 59.7538 8.208C59.2578 7.568 59.0098 6.752 59.0098 5.76C59.0098 4.768 59.2738 3.896 59.8018 3.144C60.3298 2.376 61.0738 1.784 62.0338 1.368C63.0098 0.935999 64.1298 0.719999 65.3938 0.719999C66.5938 0.719999 67.7138 0.903999 68.7538 1.272C69.8098 1.64 70.6898 2.16 71.3938 2.832L70.5058 4.656C69.7218 4 68.9138 3.52 68.0818 3.216C67.2498 2.896 66.3618 2.736 65.4178 2.736C64.1858 2.736 63.2178 3 62.5138 3.528C61.8098 4.04 61.4578 4.744 61.4578 5.64C61.4578 6.408 61.7618 6.992 62.3698 7.392C62.9938 7.792 63.9858 8.152 65.3458 8.472C66.7698 8.792 67.9218 9.128 68.8018 9.48C69.6818 9.832 70.3858 10.312 70.9138 10.92C71.4418 11.528 71.7057 12.312 71.7057 13.272C71.7057 14.264 71.4418 15.128 70.9138 15.864C70.3858 16.6 69.6258 17.176 68.6338 17.592C67.6578 17.992 66.5058 18.192 65.1778 18.192ZM82.1173 18.192C80.5013 18.192 79.0933 17.84 77.8933 17.136C76.7093 16.416 75.7893 15.4 75.1333 14.088C74.4933 12.776 74.1733 11.232 74.1733 9.456C74.1733 7.664 74.4933 6.112 75.1333 4.8C75.7733 3.488 76.6933 2.48 77.8933 1.776C79.0933 1.072 80.5013 0.719999 82.1173 0.719999C83.7493 0.719999 85.1573 1.072 86.3412 1.776C87.5413 2.48 88.4613 3.488 89.1013 4.8C89.7413 6.112 90.0613 7.656 90.0613 9.432C90.0613 11.224 89.7413 12.776 89.1013 14.088C88.4613 15.4 87.5413 16.416 86.3412 17.136C85.1413 17.84 83.7333 18.192 82.1173 18.192ZM82.1173 16.176C83.8293 16.176 85.1573 15.592 86.1013 14.424C87.0613 13.256 87.5413 11.592 87.5413 9.432C87.5413 7.288 87.0613 5.64 86.1013 4.488C85.1573 3.32 83.8293 2.736 82.1173 2.736C80.4053 2.736 79.0773 3.32 78.1333 4.488C77.1893 5.64 76.7173 7.288 76.7173 9.432C76.7173 11.592 77.1893 13.256 78.1333 14.424C79.0933 15.592 80.4213 16.176 82.1173 16.176ZM93.4764 0.912H104.324V2.952H95.9244V8.304H103.844V10.344H95.9244V18H93.4764V0.912ZM111.314 2.976H105.53V0.912H119.594V2.976H113.81V18H111.314V2.976ZM133.684 18.192C131.012 18.192 128.884 17.472 127.3 16.032L128.044 14.52C128.892 15.24 129.756 15.752 130.636 16.056C131.516 16.36 132.54 16.512 133.708 16.512C135.084 16.512 136.14 16.248 136.876 15.72C137.628 15.176 138.004 14.416 138.004 13.44C138.004 12.864 137.82 12.4 137.452 12.048C137.1 11.68 136.628 11.392 136.036 11.184C135.46 10.976 134.684 10.76 133.708 10.536C132.396 10.248 131.316 9.936 130.468 9.6C129.62 9.264 128.932 8.784 128.404 8.16C127.876 7.52 127.612 6.688 127.612 5.664C127.612 4.688 127.868 3.832 128.38 3.096C128.892 2.344 129.612 1.76 130.54 1.344C131.484 0.927999 132.58 0.719999 133.828 0.719999C135.012 0.719999 136.116 0.903999 137.14 1.272C138.164 1.64 139.028 2.176 139.732 2.88L138.964 4.392C138.164 3.704 137.348 3.2 136.516 2.88C135.7 2.56 134.804 2.4 133.828 2.4C132.5 2.4 131.46 2.688 130.708 3.264C129.956 3.824 129.58 4.6 129.58 5.592C129.58 6.456 129.908 7.104 130.564 7.536C131.22 7.968 132.228 8.344 133.588 8.664C135.06 9.016 136.212 9.344 137.044 9.648C137.892 9.936 138.596 10.384 139.156 10.992C139.716 11.584 139.996 12.376 139.996 13.368C139.996 14.328 139.74 15.176 139.228 15.912C138.716 16.632 137.98 17.192 137.02 17.592C136.076 17.992 134.964 18.192 133.684 18.192ZM150.366 18.192C148.782 18.192 147.406 17.84 146.238 17.136C145.07 16.432 144.166 15.424 143.526 14.112C142.902 12.784 142.59 11.232 142.59 9.456C142.59 7.664 142.902 6.112 143.526 4.8C144.15 3.488 145.046 2.48 146.214 1.776C147.382 1.072 148.766 0.719999 150.366 0.719999C151.966 0.719999 153.35 1.072 154.518 1.776C155.686 2.48 156.582 3.488 157.206 4.8C157.83 6.112 158.142 7.656 158.142 9.432C158.142 11.224 157.822 12.776 157.182 14.088C156.558 15.4 155.662 16.416 154.494 17.136C153.326 17.84 151.95 18.192 150.366 18.192ZM150.366 16.512C152.174 16.512 153.582 15.896 154.59 14.664C155.598 13.432 156.102 11.688 156.102 9.432C156.102 7.176 155.598 5.44 154.59 4.224C153.598 3.008 152.19 2.4 150.366 2.4C148.542 2.4 147.126 3.016 146.118 4.248C145.11 5.464 144.606 7.192 144.606 9.432C144.606 11.688 145.11 13.432 146.118 14.664C147.126 15.896 148.542 16.512 150.366 16.512ZM161.753 0.912H163.721V16.32H172.289V18H161.753V0.912ZM180.847 18.192C178.607 18.192 176.911 17.616 175.759 16.464C174.623 15.296 174.055 13.576 174.055 11.304V0.912H175.999V11.472C175.999 13.136 176.407 14.392 177.223 15.24C178.039 16.088 179.247 16.512 180.847 16.512C182.431 16.512 183.623 16.088 184.423 15.24C185.239 14.392 185.647 13.136 185.647 11.472V0.912H187.615V11.304C187.615 13.56 187.039 15.272 185.887 16.44C184.735 17.608 183.055 18.192 180.847 18.192ZM195.857 2.592H189.905V0.912H203.801V2.592H197.849V18H195.857V2.592ZM206.19 0.912H208.158V18H206.19V0.912ZM219.53 18.192C217.946 18.192 216.57 17.84 215.402 17.136C214.234 16.432 213.33 15.424 212.69 14.112C212.066 12.784 211.754 11.232 211.754 9.456C211.754 7.664 212.066 6.112 212.69 4.8C213.314 3.488 214.21 2.48 215.378 1.776C216.546 1.072 217.93 0.719999 219.53 0.719999C221.13 0.719999 222.514 1.072 223.682 1.776C224.85 2.48 225.746 3.488 226.37 4.8C226.994 6.112 227.306 7.656 227.306 9.432C227.306 11.224 226.986 12.776 226.346 14.088C225.722 15.4 224.826 16.416 223.658 17.136C222.49 17.84 221.114 18.192 219.53 18.192ZM219.53 16.512C221.338 16.512 222.746 15.896 223.754 14.664C224.762 13.432 225.266 11.688 225.266 9.432C225.266 7.176 224.762 5.44 223.754 4.224C222.762 3.008 221.354 2.4 219.53 2.4C217.706 2.4 216.29 3.016 215.282 4.248C214.274 5.464 213.77 7.192 213.77 9.432C213.77 11.688 214.274 13.432 215.282 14.664C216.29 15.896 217.706 16.512 219.53 16.512ZM244.621 0.912V18H243.085L232.765 4.248V18H230.917V0.912H232.429L242.749 14.664V0.912H244.621ZM254.247 18.192C251.575 18.192 249.447 17.472 247.863 16.032L248.607 14.52C249.455 15.24 250.319 15.752 251.199 16.056C252.079 16.36 253.103 16.512 254.271 16.512C255.647 16.512 256.703 16.248 257.439 15.72C258.191 15.176 258.567 14.416 258.567 13.44C258.567 12.864 258.383 12.4 258.015 12.048C257.663 11.68 257.191 11.392 256.599 11.184C256.023 10.976 255.247 10.76 254.271 10.536C252.959 10.248 251.879 9.936 251.031 9.6C250.183 9.264 249.495 8.784 248.967 8.16C248.439 7.52 248.175 6.688 248.175 5.664C248.175 4.688 248.431 3.832 248.943 3.096C249.455 2.344 250.175 1.76 251.103 1.344C252.047 0.927999 253.143 0.719999 254.391 0.719999C255.575 0.719999 256.679 0.903999 257.703 1.272C258.727 1.64 259.591 2.176 260.295 2.88L259.527 4.392C258.727 3.704 257.911 3.2 257.079 2.88C256.263 2.56 255.367 2.4 254.391 2.4C253.063 2.4 252.023 2.688 251.271 3.264C250.519 3.824 250.143 4.6 250.143 5.592C250.143 6.456 250.471 7.104 251.127 7.536C251.783 7.968 252.791 8.344 254.151 8.664C255.623 9.016 256.775 9.344 257.607 9.648C258.455 9.936 259.159 10.384 259.719 10.992C260.279 11.584 260.559 12.376 260.559 13.368C260.559 14.328 260.303 15.176 259.791 15.912C259.279 16.632 258.543 17.192 257.583 17.592C256.639 17.992 255.527 18.192 254.247 18.192Z" fill="white"/>
</svg>
