<svg width="90" height="90" viewBox="0 0 90 90" fill="none" xmlns="http://www.w3.org/2000/svg">
<path d="M45.0005 57.6777C43.9103 57.6777 43.0273 58.5618 43.0273 59.652C43.0273 60.7423 43.9104 61.6267 45.0005 61.6267C46.0912 61.6267 46.975 60.7423 46.975 59.652C46.975 58.5618 46.0912 57.6777 45.0005 57.6777Z" fill="#96999A"/>
<path d="M88.1633 3.85791H1.83673C0.822306 3.85791 0 4.68022 0 5.69464V65.8396C0 66.8539 0.822306 67.6764 1.83673 67.6764H33.9265L30.7137 75.4696H24.6745C23.6603 75.4696 22.8378 76.2921 22.8378 77.3064V84.3058C22.8378 85.3202 23.6603 86.1425 24.6745 86.1425H65.3257C66.3399 86.1425 67.1624 85.3202 67.1624 84.3058V77.3064C67.1624 76.2921 66.3399 75.4696 65.3257 75.4696H59.2867L56.0737 67.6764H88.1633C89.1775 67.6764 90 66.8539 90 65.8396V5.69464C90 4.68003 89.1775 3.85791 88.1633 3.85791ZM86.3265 7.53138V51.7785H3.67347V7.53138H86.3265ZM63.4889 82.4691H26.5112V79.1431H63.4889V82.4691V82.4691ZM55.3131 75.4696H34.6871L37.8999 67.6764H52.1001L55.3131 75.4696ZM3.67347 64.0029V55.452H86.3265V64.0029H3.67347Z" fill="#96999A"/>
<path d="M59.3641 29.5881C59.3641 28.5739 58.5416 27.7514 57.5272 27.7516L55.5685 27.7518C55.4577 27.1139 55.2935 26.4943 55.0752 25.9003L56.7688 24.9225C57.6471 24.415 57.9482 23.2916 57.4407 22.4133C56.9332 21.535 55.8102 21.2336 54.9317 21.7412L53.2331 22.7224C52.823 22.2322 52.37 21.7793 51.8798 21.3689L52.861 19.6705C53.3685 18.7922 53.0676 17.6686 52.1893 17.1613C51.311 16.6537 50.1876 16.9547 49.6801 17.833L48.7021 19.5265C48.1081 19.3081 47.4885 19.1437 46.8506 19.0328V17.075C46.8506 16.0606 46.0283 15.2383 45.0139 15.2383C45.0093 15.2383 45.0045 15.239 44.9999 15.239C44.9953 15.239 44.9906 15.2383 44.986 15.2383C43.9717 15.2383 43.1492 16.0606 43.1492 17.075V19.0326C42.5113 19.1435 41.8918 19.3078 41.2978 19.5263L40.3197 17.8329C39.8123 16.9545 38.6889 16.6535 37.8106 17.1612C36.9323 17.6685 36.6314 18.792 37.1389 19.6703L38.1201 21.3688C37.6298 21.7791 37.1769 22.232 36.7668 22.7222L35.0682 21.7411C34.1896 21.2334 33.0667 21.5348 32.5592 22.4131C32.0517 23.2914 32.3527 24.4148 33.231 24.9223L34.9247 25.9002C34.7063 26.4942 34.5421 27.1137 34.4314 27.7516L32.4727 27.7514C31.4582 27.7512 30.6357 28.5737 30.6357 29.588C30.6357 30.6024 31.4582 31.4247 32.4727 31.4247L34.4314 31.4245C34.5419 32.0622 34.7063 32.6818 34.9247 33.2758L33.231 34.2538C32.3527 34.7613 32.0517 35.8845 32.5592 36.763C33.0667 37.6411 34.1896 37.9425 35.0682 37.4349L36.7668 36.4537C37.1769 36.9441 37.6298 37.397 38.1201 37.8072L37.1389 39.5058C36.6314 40.3841 36.9323 41.5074 37.8106 42.0148C38.6889 42.5224 39.8123 42.2214 40.3197 41.3432L41.2978 39.6496C41.8918 39.868 42.5113 40.0325 43.1492 40.1433V42.1009C43.1492 43.1153 43.9717 43.9376 44.986 43.9376C44.9906 43.9376 44.9953 43.9369 44.9999 43.9369C45.0045 43.9369 45.0093 43.9376 45.0139 43.9376C46.0283 43.9376 46.8506 43.1153 46.8506 42.1009V40.1433C47.4885 40.0325 48.1081 39.8682 48.7021 39.6496L49.6801 41.3432C50.1876 42.2214 51.311 42.5224 52.1893 42.0148C53.0676 41.5074 53.3685 40.3841 52.861 39.5058L51.8798 37.8072C52.37 37.397 52.823 36.9441 53.2331 36.4537L54.9317 37.4349C55.8102 37.9425 56.9334 37.6411 57.4407 36.763C57.9482 35.8845 57.6471 34.7613 56.7688 34.2538L55.0752 33.2758C55.2935 32.6818 55.4577 32.0622 55.5685 31.4245L57.5272 31.4247C58.5416 31.4249 59.3641 30.6026 59.3641 29.5881ZM45.0137 36.6309C45.0091 36.6309 45.0043 36.6305 44.9997 36.6305C44.9952 36.6305 44.9904 36.6309 44.9858 36.6309C41.1027 36.6309 37.9437 33.4717 37.9437 29.5881C37.9437 25.7047 41.1027 22.5454 44.9858 22.5454C44.9904 22.5454 44.9952 22.5457 44.9997 22.5457C45.0043 22.5457 45.0091 22.5454 45.0137 22.5454C48.8967 22.5454 52.0557 25.7047 52.0557 29.5881C52.0557 33.4715 48.8967 36.6309 45.0137 36.6309Z" fill="#96999A"/>
</svg>
